<svg width="147" height="48" viewBox="0 0 147 48" fill="none" xmlns="http://www.w3.org/2000/svg">
<g clip-path="url(#clip0_997_660)">
<path d="M48.3725 23.3286H42.5522V42.2201H48.3725C49.513 42.2201 50.4363 41.8935 51.1152 41.2401C51.7941 40.5868 52.138 39.6795 52.138 38.5362V27.0307C52.138 25.8965 51.7941 24.98 51.1152 24.3176C50.4363 23.6643 49.513 23.3286 48.3725 23.3286ZM45.7023 26.0961H47.5579C48.5264 26.0961 48.979 26.5226 48.979 27.4481V38.0734C48.979 39.008 48.5083 39.4526 47.4854 39.4526H45.7023V26.0961Z" fill="#231F20"/>
<path d="M56.8178 23.3014L53.2152 41.9388V42.2201H56.3018L56.854 38.7086H59.9768L60.529 42.2201H63.67L60.0493 23.3014H56.8178V23.3014ZM59.5243 35.9411H57.2794L58.4018 29.0178L59.5243 35.9411Z" fill="#231F20"/>
<path d="M67.9785 23.3286H64.8285V42.2201H67.9785V23.3286Z" fill="#231F20"/>
<path d="M73.0022 23.3286H69.8522V42.2201H77.4918V39.3528H73.0022V23.3286Z" fill="#231F20"/>
<path d="M85.2402 23.3286L83.1945 30.8235L81.1398 23.3286H77.9808L77.9627 23.501C77.9536 23.5645 77.9446 23.6371 77.9717 23.7097L80.3976 31.4224C80.4338 31.5313 80.651 32.1573 81.0674 33.346C81.2937 34.0084 81.4747 34.6526 81.6014 35.2515V42.2292H84.7605V35.2606C85.2674 33.473 85.6656 32.1936 85.9644 31.4405L88.4083 23.7006L88.4174 23.6734V23.3377H85.2402V23.3286Z" fill="#231F20"/>
<path d="M98.7996 33.5638C98.9897 33.5728 99.1435 33.5819 99.2612 33.5819C101.153 33.5819 101.434 32.5021 101.434 31.8579V24.8348C101.434 24.3449 101.271 23.9365 100.954 23.619C100.637 23.3014 100.23 23.1381 99.741 23.1381H93.1785V42.4016H95.5862V25.3611H99.0259V31.4042H96.2832L95.8397 32.0666L99.4241 42.4107H101.959L101.778 41.8935C100.782 39.0987 99.7772 36.295 98.7996 33.5638Z" fill="#231F20"/>
<path d="M106.104 23.0927L102.755 41.9116L102.746 42.4106H105.036L105.688 38.3002H108.702L109.354 42.4106H111.762L108.358 23.0927H106.104ZM108.367 36.0681H106.023L107.2 28.8272L108.367 36.0681Z" fill="#231F20"/>
<path d="M119.582 23.1381H114.83C114.341 23.1381 113.934 23.3014 113.617 23.619C113.3 23.9365 113.138 24.3449 113.138 24.8348V40.7139C113.138 41.2039 113.3 41.6122 113.617 41.9297C113.934 42.2473 114.341 42.4107 114.83 42.4107H119.582C120.071 42.4107 120.479 42.2473 120.804 41.9388C121.13 41.6212 121.302 41.2129 121.302 40.7139V35.6326H118.885V40.1876H115.545V25.3611H118.885V29.526H121.302V24.8348C121.302 24.3449 121.139 23.9275 120.804 23.6099C120.488 23.3014 120.071 23.1381 119.582 23.1381Z" fill="#231F20"/>
<path d="M125.9 23.1381H123.493V42.4016H125.9V23.1381Z" fill="#231F20"/>
<path d="M134.273 34.7071L130.091 23.1381H128.209V42.4016H130.526V30.5967L134.798 42.4016H136.581V23.1381H134.273V34.7071Z" fill="#231F20"/>
<path d="M147 29.5168V24.8257C147 24.3357 146.837 23.9274 146.52 23.6098C146.203 23.2922 145.796 23.1289 145.307 23.1289H140.465C139.976 23.1289 139.569 23.2922 139.252 23.6098C138.935 23.9274 138.772 24.3357 138.772 24.8257V40.7047C138.772 41.1947 138.935 41.603 139.252 41.9206C139.569 42.2382 139.976 42.4015 140.465 42.4015H145.307C145.796 42.4015 146.203 42.2382 146.52 41.9206C146.837 41.603 147 41.1947 147 40.7047V32.366H142.61V34.5527H144.583V40.1784H141.171V25.361H144.583V29.5259H147V29.5168Z" fill="#231F20"/>
<path d="M47.9018 16.995C47.938 17.0132 47.6755 16.7682 47.1052 16.251C46.4806 15.6612 45.9194 14.9081 45.4035 13.9735C45.2949 13.7376 45.1591 13.4109 44.9962 13.0117C44.7789 12.5308 44.6431 12.2223 44.5888 12.0771C44.263 11.3784 43.8738 10.8975 43.4393 10.6162C43.4393 10.3077 43.2944 10.0718 43.0048 9.92661C42.4888 9.6544 42.2444 9.52737 42.2625 9.54551C42.0634 9.36404 41.81 8.94665 41.5203 8.31149C41.285 7.75799 40.9772 7.40411 40.6151 7.24079H40.5065C40.5065 7.15005 40.4613 7.48578 40.3707 8.25704C40.3164 8.63814 40.3617 8.91943 40.5065 9.08275C40.3979 8.97387 40.0539 8.69258 39.4656 8.22982C38.8229 7.75799 38.4789 7.50392 38.4246 7.48578C38.497 8.03927 38.5966 8.50203 38.7233 8.88313C38.7595 8.97387 38.8772 9.18256 39.0763 9.51829C39.2393 9.80865 39.3207 9.9992 39.3207 10.0718C39.2845 10.4166 39.013 10.5527 38.497 10.4529C38.3341 10.4347 38.1259 10.3803 37.8634 10.2896C37.5737 10.1988 37.3837 10.1444 37.3113 10.1262C36.6324 9.98105 36.0983 9.91754 35.691 9.93568C34.9759 9.97198 33.9802 10.3712 32.7039 11.1425C31.5181 11.8593 30.5134 12.186 29.6897 12.1315C29.563 12.1134 29.3186 12.0408 28.9475 11.9138C28.6578 11.823 28.4406 11.7958 28.2957 11.8321C28.2867 11.8775 28.2867 11.9319 28.2867 11.9773C28.2957 12.0862 28.341 12.2041 28.4315 12.3221C28.4949 12.4128 28.5492 12.4945 28.5854 12.5671C28.7393 12.6034 28.9022 12.6215 29.0561 12.6215C29.3186 12.6215 29.5901 12.5761 29.8979 12.4854L29.9884 12.4582C30.1332 12.4037 30.2781 12.3584 30.4229 12.313C30.5134 12.2858 30.5949 12.2676 30.6854 12.2404L30.9117 12.1769L31.0203 12.2676C31.3009 12.5126 31.5272 12.8302 31.672 13.1569C31.7263 13.2839 31.7716 13.42 31.7987 13.5652L31.8531 13.8192L27.7798 14.8083C27.6712 14.8355 27.5535 14.8627 27.4358 14.8809C27.4177 14.8809 27.4087 14.8809 27.3906 14.8899C27.4992 14.9807 27.5716 15.0442 27.5897 15.0623C27.0013 15.2438 26.413 15.2166 25.8065 14.9807C25.6074 14.9081 25.363 14.7901 25.0643 14.6268C24.7203 14.4453 24.494 14.3364 24.4035 14.3001C24.313 14.6087 24.4035 14.8809 24.6569 15.1077C24.8651 15.1259 25.0914 15.144 25.3268 15.1622H25.4082L25.4716 15.2075C25.5078 15.2347 25.544 15.262 25.5802 15.2801C25.6526 15.3346 25.7341 15.3799 25.8246 15.4253C25.8427 15.4344 25.9513 15.4979 25.9513 15.4979C25.9875 15.516 26.0238 15.5342 26.0781 15.5523C26.1324 15.5705 26.2048 15.5795 26.2862 15.5795C26.3949 15.5795 26.5035 15.5614 26.6121 15.5432L27.1733 15.4162C27.3634 15.3708 27.5444 15.3346 27.7255 15.2983C27.9246 15.2529 28.1237 15.2166 28.3138 15.1803L28.35 15.2983C28.6035 15.2529 28.875 15.2257 29.1285 15.2166C29.1737 15.2166 29.219 15.2166 29.2552 15.2166C29.5358 15.2166 29.8164 15.2347 30.0608 15.2801L30.2871 15.3164L30.3505 15.3799C30.5587 15.5977 30.7306 15.8881 30.8845 16.1693C30.9388 16.2691 31.0022 16.378 31.0565 16.4869C31.8531 15.9153 32.7582 15.2257 33.7992 14.4181C35.7 12.9119 37.094 11.8593 37.9901 11.2604H38.0716C37.7819 11.8321 37.5647 12.3402 37.438 12.803C37.4018 12.7667 37.3475 12.685 37.275 12.558C37.2207 12.4491 37.1574 12.3856 37.085 12.3674C36.7772 12.2767 36.1164 12.6669 35.1117 13.547C34.8944 13.7285 34.5957 14.0007 34.2337 14.3727C33.8897 14.7175 33.6272 14.9625 33.4643 15.0896C33.247 15.271 32.9302 15.507 32.5319 15.8064C32.1156 16.0786 31.8078 16.2873 31.6268 16.4415C31.4819 16.5595 31.3371 16.6775 31.1832 16.7773C31.2556 16.9406 31.3371 17.1039 31.4095 17.2854C31.491 17.476 31.5634 17.6756 31.6358 17.8661C31.7082 18.0567 31.7716 18.2472 31.8259 18.4196C32.0341 19.0729 32.1427 19.6718 32.2151 20.1708C32.2423 20.3342 32.2604 20.4975 32.2875 20.6608L32.36 21.178C32.3781 21.2869 32.3962 21.4049 32.4324 21.5138C32.5229 21.8858 32.6677 22.2034 32.8397 22.4393L33.6815 23.5554C33.7358 23.6189 33.7811 23.6915 33.8354 23.755C33.8897 23.8094 33.935 23.8729 33.9983 23.9274L34.1431 24.0635L34.1522 24.0544L34.2427 24.0907C34.288 24.1088 34.3242 24.1179 34.3604 24.127C34.3875 24.127 34.4056 24.1361 34.4328 24.1361C34.4962 24.1361 34.5595 24.127 34.6319 24.0998C34.7858 24.0544 34.9487 23.9637 35.1117 23.8729L35.3108 23.755L35.4647 23.8366C35.6638 23.9818 35.863 24.1361 36.0621 24.3175L36.2975 24.5353L36.044 24.7259C35.8992 24.8347 35.7453 24.9436 35.6005 25.0616C35.4466 25.1796 35.3018 25.2975 35.1569 25.4155C34.5867 25.8782 34.0888 26.3319 33.7449 26.6586C33.7449 26.7584 33.7358 26.8673 33.7268 26.9852C33.6363 27.8291 33.7539 28.3372 34.0798 28.5278C33.9712 29.045 33.9078 29.3716 33.8897 29.5168C33.7268 29.4442 33.5638 29.4714 33.3919 29.5985C33.1927 29.7436 33.0479 29.8162 32.9574 29.8162C32.9574 29.544 33.0931 28.8272 33.3647 27.6748C33.4281 27.3935 33.4733 27.1395 33.4914 26.8945C33.4733 26.9126 33.4552 26.9308 33.4462 26.9399L33.3194 27.0669L33.2199 26.9489C33.0117 26.8582 32.8578 26.7584 32.7311 26.6313C32.2875 26.1686 31.8893 25.6242 31.5181 24.9799C31.4548 24.862 31.3824 24.7349 31.319 24.5988C31.0384 24.7349 30.8574 25.0707 30.7578 25.6151C30.6492 26.3319 30.4862 26.7493 30.26 26.8763C30.097 25.2612 29.9069 24.254 29.6806 23.8548C29.572 23.6915 29.3819 23.51 29.1013 23.3013C28.8117 23.1017 28.6125 22.9383 28.522 22.8113C28.3953 22.7932 28.3048 22.8385 28.2505 22.9474C28.2324 22.9656 28.2233 23.0109 28.2233 23.0835C28.2052 23.1561 28.1871 23.2106 28.169 23.2468C27.988 22.8476 27.9608 22.285 28.0875 21.5682C28.2686 21.5864 28.4225 21.7678 28.5492 22.1217C28.6759 22.4302 28.875 22.5754 29.1556 22.5572C29.2281 22.5391 29.2643 22.4665 29.2643 22.3395C29.2643 22.1761 29.2824 22.0854 29.3186 22.0673C29.391 22.1217 29.4725 22.2397 29.563 22.4211C29.6535 22.6208 29.735 22.7478 29.8074 22.8022C29.9884 22.7841 30.1332 22.5663 30.2419 22.1398C30.2509 22.158 30.269 22.1761 30.2871 22.2034C30.2419 22.0854 30.2056 21.9674 30.1604 21.8586C29.8526 20.9875 29.5449 20.1255 29.2281 19.2544L29.1194 18.9459L29.1285 18.9368L29.047 18.7553C29.0108 18.6737 28.9746 18.6192 28.9384 18.5648C28.8569 18.4559 28.7483 18.3652 28.6035 18.3017L28.513 18.2654C28.513 18.2654 28.4496 18.1293 28.4406 18.1202L28.4225 18.4196L28.1962 18.2019L27.997 18.2109C27.8341 18.22 27.6802 18.2472 27.5082 18.2744C27.3 18.3107 27.0828 18.347 26.8565 18.347C26.6302 18.347 26.422 18.347 26.2138 18.347C25.897 18.347 25.5802 18.347 25.2725 18.3561L21.8962 18.3833C21.7513 18.3833 21.6065 18.3833 21.4617 18.3833C21.335 18.3833 21.1901 18.3833 21.0453 18.3743C21.2082 18.4378 21.3259 18.4922 21.4074 18.5194C21.0996 18.5648 20.7104 18.4922 20.2578 18.3198C20.2125 18.3107 20.1673 18.3107 20.122 18.3017C19.8595 18.2654 19.6332 18.22 19.4069 18.1656C19.2893 18.1293 19.1716 18.102 19.0539 18.0567C18.9 18.0022 18.7552 17.9387 18.6104 17.8661C18.5832 17.8661 18.5561 17.8661 18.5289 17.8752C18.4746 17.8752 18.3117 17.9296 18.0311 18.0385C17.8319 18.1111 17.669 18.1383 17.5332 18.1202C17.4789 18.102 17.4065 18.0476 17.316 17.9569C17.2255 17.848 17.1531 17.7845 17.0987 17.7663C16.9177 17.7119 16.5104 17.7572 15.8949 17.9024C15.9492 17.9024 15.7138 18.0022 15.1798 18.2019C14.872 18.3289 14.5914 18.347 14.3561 18.2563C15.741 17.6574 16.8725 17.3398 17.7505 17.3126C17.6056 17.1947 17.4608 17.0586 17.3341 16.9225C17.1531 16.7319 16.9992 16.5141 16.8544 16.2964C15.2613 16.4869 13.5143 17.0223 11.6134 17.9024C10.5906 18.4015 10.0294 18.6555 9.93884 18.6737C10.1018 18.6374 8.86168 18.2381 6.20953 17.4669C6.15521 17.4487 6.01944 17.4306 5.8022 17.4124C5.62116 17.3761 5.49444 17.3489 5.42202 17.3308C5.25909 17.2582 4.89703 16.8317 4.35392 16.0695C3.89228 15.4434 3.43065 15.1894 2.95996 15.2983C2.6884 15.3527 2.44401 15.5432 2.24487 15.879C1.91901 16.4688 1.76513 17.6302 1.81039 19.3724C1.84659 21.1871 1.72892 22.3939 1.45737 23.0019C1.22202 23.5372 0.905215 23.9002 0.525042 24.0998C0.190128 24.2722 4.15727e-05 24.3538 -0.0271136 24.3266C-0.0452171 24.5444 0.0815074 24.6805 0.362111 24.7349C0.3078 24.7168 0.525042 24.7259 1.02289 24.7622C0.642715 25.733 0.470732 26.3138 0.534094 26.4952C0.805645 26.4408 1.0953 26.1777 1.38496 25.6968C1.65651 25.2431 1.93711 25.0071 2.20866 25.0071C1.99142 26.4589 2.1272 27.2756 2.61599 27.4843C2.63409 26.8945 2.79702 26.3319 3.11383 25.7784C3.4759 25.1523 3.89228 24.8801 4.34487 24.9527C4.47159 24.9709 4.58022 25.0434 4.67073 25.1705C4.77935 25.2975 4.86987 25.3701 4.94228 25.3882C5.37677 25.5153 5.8203 25.4064 6.25478 25.0616C6.61685 24.7894 6.89746 24.4627 7.07849 24.0998C8.31858 21.6226 8.77116 20.4431 8.41815 20.5519C8.76211 20.4431 9.06082 20.4794 9.29616 20.6608C8.45435 21.6862 8.09228 22.9111 8.2009 24.3448C8.27332 25.2249 8.63539 26.0869 9.29616 26.9308C10.3009 28.192 10.8078 28.9451 10.8078 29.1811C10.8078 29.6438 10.4095 30.2336 9.60392 30.9686C9.53151 31.0412 9.39573 31.1591 9.19659 31.3225C9.01556 31.4676 8.87978 31.5856 8.78927 31.6763C8.49961 31.9667 8.34573 32.3115 8.31858 32.6926C8.28237 32.6563 9.44099 33.4911 11.8035 35.1969C12.6815 35.823 13.1431 36.2132 13.1975 36.3765C13.2156 36.4673 13.1975 36.7395 13.1431 37.2022C13.125 37.5652 13.2065 37.8283 13.3875 37.9735C13.1884 38.2094 13.0888 38.6177 13.0888 39.1803C13.0888 39.6975 13.1522 40.1331 13.2789 40.496C13.813 40.3327 14.2565 39.9697 14.6186 39.4253C15.0712 38.7085 15.3246 38.1822 15.3608 37.8283C15.3789 37.6106 15.3427 37.4109 15.2522 37.2204C15.1436 37.0026 15.0802 36.8574 15.0621 36.7848C15.0621 36.7123 15.0802 36.5852 15.1164 36.4038C15.1345 36.2404 15.1345 36.1134 15.1164 36.0227C15.0802 35.8956 14.7906 35.6234 14.2384 35.1969C13.3061 34.4801 12.3556 33.6453 11.3871 32.6926C11.55 32.2389 12.0207 31.7762 12.7811 31.3225C13.5505 30.8416 14.0121 30.3788 14.175 29.9251C15.035 29.4442 15.6324 28.8181 15.9582 28.0287C16.1031 28.192 16.3837 28.3554 16.8091 28.5187C17.2074 28.6639 17.4789 28.809 17.6056 28.9542C17.8591 29.2809 17.9677 29.7709 17.9315 30.4151C17.9134 30.9141 17.7505 31.6038 17.4337 32.5021C16.9358 33.9266 16.6462 34.6888 16.5375 34.8068C16.8363 34.9701 17.325 35.2242 18.0039 35.5508C18.6466 35.8775 19.1354 36.1406 19.4884 36.3221C20.6199 36.9663 21.4436 37.6559 21.9595 38.409C20.9186 39.6159 19.6151 40.6503 18.0401 41.5123C18.022 41.603 18.0401 41.7119 18.0944 41.8389C18.1487 41.9659 18.1669 42.0839 18.1487 42.1928C18.0582 42.2835 17.8048 42.4287 17.3794 42.6283C17.0354 42.8098 16.8181 43.0094 16.7457 43.2363C16.7276 43.3452 16.7548 43.7353 16.8272 44.3886C16.6462 44.3523 16.4108 44.3796 16.1121 44.4703C15.75 44.561 15.5056 44.6155 15.397 44.6336C15.5237 44.6155 14.8268 44.4522 13.3151 44.1346C13.0617 44.0801 12.6544 44.0801 12.1112 44.1346C11.5229 44.189 11.0975 44.1981 10.8259 44.1618C10.7173 44.1436 10.5544 44.0892 10.3281 43.9985C10.1289 43.8896 9.98409 43.8351 9.89358 43.8351C9.5134 43.7807 9.06987 43.8896 8.58108 44.1618C7.97461 44.5247 7.59444 44.7334 7.43151 44.7697C7.15996 44.8423 6.76168 44.8332 6.25478 44.7425C5.61211 44.6518 5.14142 44.6155 4.82461 44.6336C4.05521 44.6518 3.68409 44.8332 3.7022 45.1871C3.7022 45.3686 4.20004 45.541 5.18668 45.7134C5.81125 45.8223 6.50823 45.8586 7.29573 45.8223C8.35478 45.786 9.04271 45.7678 9.35047 45.7678C10.2466 45.8041 11.025 45.8041 11.6768 45.7678C12.075 45.7497 12.6725 45.7497 13.46 45.7678C14.2837 45.786 14.8901 45.786 15.2703 45.7678C15.4151 45.7678 15.7048 45.7406 16.1483 45.6862C16.5285 45.6499 16.8362 45.6317 17.0535 45.6317C17.2164 45.6317 17.4699 45.668 17.8229 45.7406C18.2031 45.8132 18.4927 45.8586 18.6737 45.8767C18.8005 45.8767 18.9815 45.8677 19.2259 45.8495C19.4612 45.8132 19.6242 45.8041 19.7237 45.8223C19.9048 45.8404 20.1401 45.8949 20.4388 45.9856C20.7104 46.0582 20.9186 46.1036 21.0725 46.1217C21.0181 46.1217 21.688 45.9221 23.0729 45.5138C23.625 45.3686 24.4487 45.423 25.5712 45.6771C27.0375 46.0038 27.9608 46.1943 28.3681 46.2306C28.4768 46.2306 28.6669 46.2215 28.9475 46.2034C29.1828 46.1852 29.3548 46.1943 29.4725 46.2306C29.5449 46.2306 29.6535 46.276 29.7983 46.3667C29.9431 46.4393 30.0518 46.4847 30.1242 46.5028C30.6763 46.648 31.4367 46.6571 32.4233 46.53C33.6091 46.3667 34.3785 46.2941 34.7225 46.3123C34.8673 46.3304 35.1117 46.3576 35.4647 46.3939C35.7906 46.4302 36.044 46.4484 36.2069 46.4484C36.741 46.4665 37.1031 46.3304 37.2931 46.031C37.085 46.0401 35.8087 45.913 33.4371 45.6317C33.2923 45.6136 33.0388 45.5591 32.6677 45.4684C32.3419 45.3958 32.0794 45.3504 31.8983 45.3323C31.4638 45.296 30.9117 45.296 30.2509 45.3323C30.1423 45.3323 29.8798 45.3686 29.4544 45.4412C29.1104 45.4956 28.8388 45.5047 28.6578 45.4684C28.4949 45.4503 28.2595 45.3686 27.9427 45.2234C27.6169 45.0601 27.3544 44.9603 27.1733 44.924C27.0828 44.924 26.6936 44.9603 25.9966 45.0329C24.847 45.1599 23.8875 45.1418 23.1181 44.9784C23.0457 44.9784 22.9009 44.9058 22.6746 44.7607C22.4393 44.6155 22.2673 44.5247 22.1496 44.4884C21.86 44.434 21.335 44.4612 20.5837 44.5701C19.941 44.679 19.4431 44.6518 19.072 44.4884C19.1263 44.307 19.1535 44.0166 19.1535 43.6083C19.1535 43.2453 19.1897 42.9731 19.2621 42.8098C19.3345 42.6465 19.8686 42.1565 20.8552 41.358C21.6789 40.6956 22.2944 40.2873 22.6927 40.124C22.6927 39.9425 23.1725 40.5504 24.15 41.9659C24.5121 40.9769 24.6207 40.1603 24.4759 39.5251C24.4578 39.4525 24.4035 39.3164 24.313 39.1168C24.2587 38.9716 24.2315 38.8446 24.2315 38.7357C24.2315 38.8083 24.5302 38.4635 25.1367 37.6922C25.4625 37.9644 25.8337 38.3818 26.2319 38.9262C26.4854 39.017 27.1914 39.4888 28.341 40.3236C28.7755 40.1603 29.5177 40.1421 30.5587 40.2692C31.5996 40.3962 32.3237 40.378 32.722 40.2147C33.0117 40.1058 33.3013 39.8881 33.5729 39.5523C33.8625 39.2075 34.0074 38.8627 34.0074 38.5361C34.0074 38.5905 33.8897 38.1822 33.6544 37.3021C33.3104 35.9682 33.0388 34.6162 32.8578 33.2642C32.9664 33.0828 33.1837 32.9194 33.5186 32.7652C33.9169 32.6019 34.1884 32.4658 34.3151 32.3569C34.3694 32.3024 34.4419 32.2026 34.5324 32.0574C34.6229 31.8941 34.6953 31.7852 34.7496 31.7308C35.7544 30.5784 36.2703 29.9614 36.2884 29.8888C36.3246 29.7618 36.3427 29.5712 36.3427 29.3081C36.3608 29.0177 36.3789 28.8181 36.397 28.7274C36.56 27.448 36.7863 26.3864 37.085 25.5425C37.2298 25.1433 37.447 24.6351 37.7457 24.0272C38.1802 23.1289 38.4337 22.6208 38.488 22.5119C38.6328 22.1852 38.8048 21.7315 39.013 21.169C39.2664 20.5066 39.4384 20.071 39.538 19.8533C39.9362 18.8461 40.3979 18.1111 40.9048 17.6574C41.6923 18.0204 42.3802 18.2109 42.9595 18.2109C43.1044 18.3743 43.4393 18.5557 43.9733 18.7644C44.444 18.9277 44.7518 19.1364 44.8785 19.3996C45.15 19.9168 45.2677 20.1618 45.2315 20.1436C45.3763 20.1618 45.666 20.1164 46.1095 20.0075C46.5078 19.8986 46.8699 19.8623 47.1776 19.8986C47.25 19.8623 47.4763 19.4722 47.8656 18.7191C47.8837 18.6828 47.947 18.592 48.0556 18.4468C48.1462 18.338 48.2005 18.2472 48.2186 18.1746C48.3091 17.73 48.1914 17.3398 47.9018 16.995ZM3.07763 24.1179C3.09573 23.7187 3.31297 23.2559 3.7384 22.7478C4.20909 22.1943 4.66168 21.9584 5.07806 22.031C5.25909 23.147 4.59832 23.8366 3.07763 24.1179ZM16.2931 25.9599C16.2388 25.2794 15.9401 24.8166 15.388 24.5625C15.3699 24.4718 15.397 24.3629 15.4694 24.2359C15.5781 24.0726 15.6324 23.9546 15.6324 23.882C15.6686 23.7005 15.6052 23.4102 15.4423 23.0019C15.2794 22.5845 15.1979 22.2578 15.1979 22.04C15.1979 21.5954 15.1979 21.3504 15.1979 21.296C15.1617 21.0782 15.0259 20.9149 14.7906 20.7969C15.1345 20.7062 15.5237 20.806 15.9401 21.0964C15.7229 21.3867 15.7319 21.7225 15.9673 22.0854C16.3112 22.6389 16.5104 22.9656 16.5466 23.0744C16.5375 23.0835 16.4561 24.0544 16.2931 25.9599ZM23.0367 36.8937C22.2944 36.4763 21.2263 35.7232 19.8414 34.6434C19.8143 34.6616 19.7962 34.6525 19.7962 34.6072C19.8143 34.6162 19.8233 34.6253 19.8414 34.6434C20.0225 34.5436 20.7556 33.3278 22.05 30.9777C22.4664 31.141 23.0095 31.3588 23.6703 31.64C24.5302 32.003 25.0552 32.2389 25.2634 32.3296C24.6569 34.1081 23.9147 35.6325 23.0367 36.8937ZM29.8345 38.9262C29.1194 38.7992 28.6759 38.527 28.4949 38.1005C28.1328 38.1187 27.8794 38.0642 27.7526 37.9372C27.8069 37.1115 27.1914 36.7667 25.9151 36.8937C25.9694 36.7849 26.25 36.4763 26.766 35.9591C26.7841 35.9228 26.9108 35.7504 27.1462 35.4329C27.3272 35.1969 27.4811 35.0518 27.6078 34.9973C27.6983 34.961 27.8431 34.9429 28.0423 34.9429C28.2595 34.961 28.4044 34.9701 28.4768 34.9701C28.6035 34.9338 29.0561 34.6979 29.8164 34.2533C29.8526 34.2533 29.8707 34.2714 29.8707 34.3077C29.8888 34.9157 30.2147 35.6869 30.8574 36.6397C31.5181 37.6287 31.8259 38.3818 31.7897 38.89C31.1108 39.0261 30.4591 39.0351 29.8345 38.9262ZM34.985 30.7962C34.9487 30.778 34.9216 30.7417 34.9035 30.6873C34.8673 30.6147 34.8311 30.5784 34.7949 30.5784C34.5052 30.7417 34.0979 31.0321 33.591 31.4586C33.075 31.876 32.6677 32.1754 32.36 32.3387C32.3237 32.2843 32.369 32.1572 32.4957 31.9576C32.6587 31.758 32.7311 31.5856 32.713 31.4313C32.6768 31.3588 32.6315 31.3134 32.5772 31.2952C32.4324 31.2589 32.3056 31.3043 32.197 31.4313C31.9798 31.6491 31.8893 31.7489 31.9255 31.7308C31.4457 32.0756 30.8393 32.3115 30.088 32.4204C30.2328 32.3115 30.441 32.2208 30.7216 32.1482C31.0112 32.0756 31.2194 32.003 31.3281 31.9304C31.5272 31.8034 31.7535 31.5675 32.016 31.2136C32.2875 30.8688 32.5138 30.6238 32.6768 30.4968C32.894 30.5331 33.075 30.8053 33.2289 31.3225C33.591 31.2136 34.0164 30.9051 34.4871 30.3879C34.9578 29.8525 35.338 29.544 35.6095 29.4533C35.6457 29.6983 35.4466 30.152 34.985 30.7962ZM39.4022 16.0877C39.2936 16.1603 39.194 16.2782 39.1035 16.4415C38.9768 16.6412 38.8863 16.7773 38.8319 16.8499C38.7776 16.8862 38.6962 16.9315 38.5875 16.986C38.4608 17.0404 38.3794 17.0949 38.3431 17.1493C38.2345 17.2582 38.144 17.4397 38.0716 17.7028C37.9992 18.0113 37.9358 18.2291 37.8815 18.338C37.8272 18.4287 37.7276 18.5467 37.5828 18.6918C37.4199 18.837 37.3112 18.9459 37.2569 19.0185C37.1664 19.1455 36.9854 19.572 36.7048 20.2797C36.5056 20.7969 36.2522 21.1417 35.9625 21.3232C36.3427 20.6245 36.5962 19.8533 36.7048 19.0185C37.0125 18.9278 37.1574 18.8824 37.1393 18.8824C37.2298 18.6828 37.3746 18.2381 37.5737 17.5667C37.7367 17.0132 37.8996 16.6139 38.0716 16.3599C38.5242 16.3417 38.7957 15.9879 38.8681 15.2892C38.9587 14.3001 39.0492 13.7194 39.1397 13.5561C39.194 13.7376 39.2664 14.1822 39.3569 14.8718C39.4294 15.4434 39.547 15.8336 39.71 16.0514C39.7009 16.0242 39.6013 16.0332 39.4022 16.0877ZM40.941 12.5671C40.941 12.44 41.0044 12.3221 41.1311 12.2132C41.2306 12.1225 41.3031 12.0408 41.3302 11.9682C41.285 11.9863 41.1401 11.8775 40.9138 11.6688C40.6966 11.2151 40.5337 10.961 40.416 10.9247C40.416 10.8703 40.5427 10.8703 40.7962 10.9247C40.7419 11.2514 40.8324 11.4691 41.0677 11.5599C41.1582 11.6143 41.4117 11.6506 41.8371 11.6688C41.8914 11.7958 42.0272 11.9501 42.2444 12.1315C42.4436 12.2949 42.5522 12.4763 42.5703 12.685C42.4074 12.431 42.1449 12.3584 41.7738 12.4673C41.3664 12.5943 41.0858 12.6306 40.941 12.5671ZM43.2401 15.5705C43.1677 15.389 43.0863 15.2529 42.9957 15.1622C42.9233 15.1077 42.7966 15.0351 42.6156 14.9444C42.4707 14.8718 42.3621 14.7992 42.2897 14.7266C42.2716 14.6903 42.2082 14.5179 42.0996 14.2003C42.0272 14.0007 41.9005 13.8737 41.7194 13.8192C41.7375 13.7104 41.8733 13.665 42.1268 13.6831C42.3802 13.6831 42.516 13.6287 42.5341 13.5198C42.5884 13.6468 42.5794 13.7557 42.5069 13.8465C42.3983 13.9553 42.344 14.0461 42.344 14.1187C42.344 14.3364 42.5431 14.6359 42.9505 14.9988C43.3306 15.3618 43.5207 15.7066 43.5026 16.0151C43.4121 15.9153 43.3306 15.7701 43.2401 15.5705ZM45.0776 14.5814C44.6794 14.1277 44.2901 13.8192 43.9281 13.6741L43.6837 13.3746C43.6112 13.3565 43.5479 13.3837 43.4936 13.4563C43.4393 13.5107 43.4121 13.538 43.4121 13.538C43.4121 13.538 43.385 13.5198 43.3306 13.4835C43.3669 13.4109 43.4121 13.2748 43.4664 13.0752C43.5207 12.8937 43.575 12.7667 43.6294 12.6941C44.9056 14.0279 45.7203 15.017 46.0733 15.6612C45.8832 15.5251 45.5574 15.1622 45.0776 14.5814ZM47.4673 18.4287C47.3949 18.5194 47.2862 18.6374 47.1414 18.7826C46.9966 18.9459 46.9061 19.0457 46.8699 19.082C46.9785 18.7372 46.8246 18.4378 46.4082 18.2019C45.9285 17.9296 45.6841 17.7482 45.666 17.6756C45.5936 17.3671 45.6931 17.1493 45.9647 17.0404C46.2181 16.9315 46.5259 16.9497 46.8699 17.0949C46.372 17.3308 46.1457 17.3943 46.1819 17.2854C46.1276 17.6665 46.3268 17.9206 46.7884 18.0295C47.241 18.1565 47.5035 18.0295 47.5578 17.6484C47.7117 17.8752 47.6845 18.1293 47.4673 18.4287Z" fill="#574A9D"/>
<path d="M25.3268 6.4243C25.363 6.36079 25.3992 6.29727 25.4445 6.24283C25.4897 6.17931 25.5531 6.12487 25.6164 6.07043C25.6527 6.04321 25.6889 6.01599 25.7251 5.98876C25.7613 5.96154 25.7975 5.93432 25.8337 5.9071C25.9876 5.87081 26.1414 5.84359 26.2953 5.81636C26.5397 5.771 26.7841 5.74377 27.0285 5.72563C27.1552 5.71655 27.2729 5.71655 27.3996 5.71655C27.5264 5.71655 27.644 5.7347 27.7617 5.75285C27.9065 5.771 28.0695 5.80729 28.2414 5.85266C28.4134 5.89803 28.5764 5.9434 28.7302 6.00691C28.8751 6.33357 28.9927 6.69652 29.0652 7.10483C29.0923 7.24094 29.1104 7.38612 29.1285 7.5313C29.1738 7.95776 29.0471 8.40238 28.8751 8.85606C28.8208 9.00124 28.7574 9.1555 28.694 9.30068C28.6397 9.42771 28.5854 9.55474 28.5402 9.68177C28.4858 9.80881 28.4406 9.93584 28.4044 10.0629C28.3048 10.3714 28.2324 10.6617 28.1781 10.9339C28.1238 11.2062 28.0785 11.4784 28.0514 11.7415C28.0333 11.9139 28.0152 12.0954 28.0061 12.2769C27.9156 12.295 27.8251 12.3222 27.7436 12.3585C27.6893 12.3767 27.635 12.3948 27.5716 12.422C27.1914 12.5763 26.9018 12.7759 26.9018 12.7759C26.9018 12.7759 27.3453 12.6398 27.7889 12.6398C27.8794 12.6398 27.9699 12.6398 28.0604 12.6489C28.0785 12.667 28.0966 12.6761 28.1147 12.6852C28.7212 12.9211 29.2914 12.9392 29.9884 12.7215C30.0065 12.7215 30.0156 12.7124 30.0337 12.7033C30.1876 12.6489 30.3505 12.5944 30.5134 12.54C30.6311 12.5037 30.7488 12.4765 30.8664 12.4402C31.1108 12.658 31.319 12.9392 31.4548 13.2387C31.5091 13.3566 31.5453 13.4746 31.5725 13.6016C30.2962 13.9101 29.0289 14.2186 27.7527 14.5271C27.644 14.5544 27.5445 14.5816 27.4358 14.5907C27.3815 14.5997 27.3272 14.6088 27.2729 14.6088C27.2186 14.6088 27.1643 14.6179 27.11 14.6088C27.1824 14.5544 27.2548 14.4999 27.3272 14.4364C27.6259 14.1914 27.8794 13.9192 27.9789 13.8012C28.0152 13.7559 28.0333 13.7377 28.0333 13.7377C28.0333 13.7377 28.0061 13.7559 27.9608 13.7831C27.8884 13.8285 27.7798 13.892 27.644 13.9736C27.5988 14.0009 27.5535 14.0281 27.4992 14.0553C27.3996 14.1098 27.291 14.1551 27.1733 14.2005C26.9471 14.3003 26.7298 14.3729 26.5578 14.4183C26.0871 14.1098 25.716 13.4927 25.5712 13.0572C25.5259 12.9211 25.4988 12.7941 25.4716 12.667C25.5078 12.422 25.5621 12.1861 25.6074 11.9411C25.6708 11.6145 25.7251 11.2878 25.7341 10.9612C25.7341 10.8795 25.7341 10.7978 25.7341 10.7162C25.716 10.0901 25.5078 9.48215 25.3268 8.88328C25.2363 8.58385 25.1639 8.27534 25.1186 7.95776C25.0733 7.64926 25.0643 7.33168 25.1277 7.02317C25.1458 6.82355 25.2182 6.61485 25.3268 6.4243Z" fill="#574A9D"/>
<path d="M17.5694 16.7682C17.3069 16.4778 17.0806 16.1603 16.9086 15.8064C16.8543 15.6975 16.809 15.5795 16.7638 15.4616C16.6371 15.1168 16.5556 14.7448 16.5284 14.3818C16.6099 14.3092 16.7185 14.2185 16.8543 14.1368C17.2435 13.8737 17.8771 13.6196 18.547 13.5924C19.2259 13.547 19.9138 13.7104 20.4026 13.91C20.647 14.0098 20.8461 14.1005 20.9819 14.1822C21.1177 14.2548 21.1991 14.3001 21.1991 14.3001C21.1991 14.3001 21.1358 14.2457 21.009 14.1459C20.8823 14.0461 20.7013 13.9191 20.4659 13.7739C20.0043 13.4926 19.3164 13.1932 18.556 13.1115C18.4565 13.1024 18.3478 13.0933 18.2483 13.0843C18.384 13.0752 18.5198 13.0752 18.6647 13.0752C18.8095 13.0843 18.9543 13.0933 19.1172 13.1206C19.425 13.1659 19.769 13.2476 20.131 13.3656C20.294 13.42 20.4569 13.4835 20.6289 13.5652C21.1358 13.8011 21.6608 14.155 22.1315 14.4907C21.7332 14.5996 21.3892 14.7357 21.3892 14.7357C21.3892 14.7357 21.5069 14.7357 21.6698 14.7357C21.8418 14.7357 22.059 14.7448 22.2853 14.7629C22.403 14.772 22.5116 14.7901 22.6203 14.7992C23.0276 15.017 23.5164 15.1712 24.1138 15.271C24.4759 15.3346 24.8832 15.3708 25.3539 15.3981C25.3901 15.4253 25.4263 15.4525 25.4625 15.4797C25.553 15.5432 25.6435 15.5886 25.734 15.6431C25.7793 15.6703 25.8246 15.6884 25.8698 15.7156C25.9151 15.7429 25.9694 15.761 26.0328 15.7792C26.2681 15.8518 26.5034 15.8155 26.7026 15.7701C26.9017 15.7247 27.0918 15.6794 27.2728 15.6431C27.4629 15.5977 27.644 15.5614 27.825 15.5251C28.0241 15.4797 28.2233 15.4434 28.4134 15.4071C28.359 15.4253 28.3047 15.4525 28.2595 15.4707C28.0241 15.5705 27.8793 15.6612 27.8793 15.6612C27.8793 15.6612 28.0422 15.6158 28.2866 15.5614C28.531 15.507 28.8569 15.4616 29.1828 15.4525C29.5086 15.4434 29.8345 15.4707 30.0698 15.507C30.1241 15.516 30.1694 15.5251 30.2056 15.5251C30.3866 15.7156 30.5405 15.9697 30.7034 16.2691C30.8845 16.5867 31.0655 16.9587 31.2194 17.3398C31.3009 17.5304 31.3733 17.7209 31.4366 17.9115C31.509 18.102 31.5724 18.2835 31.6267 18.4559C31.8168 19.0548 31.9254 19.6083 32.0069 20.1618C32.0431 20.3795 32.0703 20.6064 32.1065 20.8332C32.1246 20.9421 32.1427 21.0601 32.1608 21.178C32.1789 21.296 32.206 21.423 32.2332 21.541C32.3237 21.9039 32.4685 22.2669 32.6858 22.5572C32.9664 22.9293 33.247 23.3013 33.5276 23.6733C33.5819 23.7459 33.6362 23.8094 33.6905 23.882C33.7448 23.9546 33.8082 24.0181 33.8715 24.0725C33.8534 24.0998 33.8353 24.1361 33.8172 24.1633C33.6996 24.372 33.6181 24.5807 33.6181 24.5807C33.6181 24.5807 33.8172 24.4627 34.0164 24.372C34.0797 24.3448 34.1522 24.3175 34.2155 24.2903C34.2698 24.3085 34.3332 24.3266 34.3875 24.3357C34.5142 24.3538 34.65 24.3357 34.7767 24.2994C34.9759 24.2359 35.175 24.1179 35.3651 24.0181C35.3741 24.0181 35.3741 24.009 35.3832 24.009C35.5823 24.1451 35.7724 24.3085 35.9534 24.4718C35.8086 24.5807 35.6547 24.6986 35.5009 24.8075C35.347 24.9255 35.2022 25.0434 35.0483 25.1705C34.4056 25.6967 33.7901 26.2593 33.3284 26.713C33.1746 26.6495 33.0388 26.5678 32.9302 26.4499C32.4685 25.969 32.0884 25.4245 31.7625 24.8529C31.6539 24.6623 31.5543 24.4627 31.4547 24.2631C31.2556 23.8639 31.0836 23.4555 30.9116 23.0381C30.7487 22.6208 30.5948 22.2034 30.4409 21.786C30.1151 20.8786 29.7892 19.9622 29.4634 19.0548C29.5991 18.9459 29.753 18.8461 29.934 18.7553C30.2147 18.6102 30.5315 18.5285 30.7759 18.4922C31.0203 18.4559 31.1832 18.465 31.1832 18.465C31.1832 18.465 31.0203 18.4196 30.7668 18.4015C30.5134 18.3833 30.1694 18.4015 29.8345 18.4831C29.6534 18.5285 29.4815 18.592 29.3185 18.6646C29.2823 18.5829 29.2371 18.5013 29.1828 18.4287C29.0741 18.2744 28.9203 18.1656 28.7392 18.0839C28.7302 18.0748 28.7302 18.0657 28.7211 18.0476C28.6578 17.9206 28.5944 17.7391 28.5582 17.5485C28.5491 17.5032 28.5401 17.4487 28.531 17.4034C28.522 17.358 28.522 17.3035 28.5129 17.2582C28.5039 17.1674 28.5039 17.0767 28.5039 16.995C28.5129 16.8408 28.531 16.741 28.531 16.741C28.531 16.741 28.5129 16.7682 28.4948 16.8045C28.4767 16.8408 28.4496 16.9043 28.4134 16.9769C28.35 17.1221 28.2866 17.3308 28.2504 17.5485C28.2323 17.6484 28.2233 17.7482 28.2233 17.8389L27.9608 17.5848L28.0151 17.9569C27.6259 17.975 27.2638 18.102 26.8746 18.093C26.3496 18.0839 25.8246 18.093 25.2996 18.093C24.1771 18.102 23.0457 18.1111 21.9233 18.1202C21.344 18.1202 20.7556 18.1293 20.1853 18.0567C19.959 18.0294 19.7328 17.9841 19.5065 17.9296C19.3978 17.9024 19.2892 17.8661 19.1715 17.8298C18.5651 17.6211 18.0129 17.2491 17.5694 16.7682Z" fill="#574A9D"/>
<path d="M18.5289 10.4621C19.1535 9.6999 19.8414 8.98307 20.5746 8.32976C20.8009 8.15736 21.0363 7.99404 21.2716 7.83071C21.5069 7.67645 21.7513 7.5222 22.0048 7.37702C22.5026 7.09574 23.0186 6.84167 23.5436 6.6239C23.2449 6.87797 23.0276 7.11388 23.0276 7.11388C23.0276 7.11388 23.091 7.07759 23.1906 7.02315C23.2539 6.98685 23.3354 6.95056 23.435 6.90519C23.5255 6.85982 23.6341 6.81445 23.7427 6.76908C23.797 6.74186 23.8513 6.72371 23.9056 6.70556C23.969 6.67834 24.0233 6.6602 24.0867 6.64205C24.0324 6.77815 23.9871 6.91426 23.96 7.05944C23.8242 7.66738 23.8875 8.31162 24.1319 8.87419C24.1048 8.86511 24.0776 8.85604 24.0505 8.84697C23.5526 8.66549 23.0457 8.54753 23.0457 8.54753C23.0457 8.54753 23.5074 8.8016 23.9238 9.10103C24.15 9.26436 24.3582 9.43676 24.5121 9.56379C24.5845 9.68175 24.6479 9.79063 24.7113 9.91767C24.9828 10.4258 24.9919 10.9974 24.9375 11.5419C24.847 11.3967 24.7384 11.2697 24.6207 11.1608C24.7203 11.4511 24.7475 11.7415 24.7203 12.0137C24.6026 12.0863 24.494 12.177 24.4125 12.2315C23.9962 12.5037 23.6069 12.8031 23.2358 13.1479C23.0276 13.3385 22.8375 13.5381 22.6475 13.7468C22.4755 13.5925 22.2492 13.3929 21.9957 13.2205C21.688 12.9937 21.3531 12.8213 21.1449 12.7305C21.0181 12.6761 20.9457 12.6398 20.9457 12.6398C20.9457 12.6398 20.9729 12.6579 21.0272 12.7033C21.0815 12.7396 21.1539 12.8031 21.2354 12.8757C21.2806 12.912 21.3259 12.9483 21.3712 12.9937C21.5069 13.1207 21.6699 13.2749 21.8056 13.4383C21.9052 13.5472 21.9957 13.6651 22.0772 13.774C21.9324 13.6742 21.7875 13.5835 21.6427 13.4927C21.4255 13.3566 21.1992 13.2296 20.9729 13.1207C20.7466 13.0118 20.5294 12.912 20.3121 12.8485C20.0768 12.7759 19.8505 12.7124 19.6332 12.667C19.5246 12.6398 19.416 12.6216 19.3164 12.6035C18.8005 12.5128 18.3388 12.5128 17.9044 12.5853C17.5242 12.6489 17.1712 12.7759 16.8634 12.9392C17.3431 12.0409 17.9044 11.2243 18.5289 10.4621Z" fill="#574A9D"/>
<path d="M30.9298 -0.0090332C31.0474 -0.0090332 31.1651 0.00911438 31.2828 0.0272618C31.4005 0.0454093 31.5181 0.07263 31.6358 0.0998512C32.722 0.39021 33.6181 1.27944 33.9711 2.34106C32.4595 2.27755 30.6582 3.11233 29.1737 3.79286C28.8479 3.93804 28.5492 4.08322 28.2686 4.20117C28.2595 4.17395 28.2505 4.14673 28.2414 4.11951C28.4858 3.98341 28.8388 3.79286 29.2371 3.59323C29.6444 3.39361 30.1061 3.17584 30.5767 2.9853C31.9888 2.38643 33.4914 2.01441 33.4914 2.01441C33.4914 2.01441 31.9617 2.25032 30.4862 2.72216C29.5811 2.99437 28.703 3.34824 28.1509 3.58416C28.1147 3.13048 28.1599 2.67679 28.2957 2.24125C28.4315 1.80571 28.6487 1.40647 28.9384 1.05259C29.4362 0.471874 30.1694 0.0635566 30.9298 -0.0090332Z" fill="#574A9D"/>
<path d="M33.6 4.79102C33.5819 4.80917 33.5638 4.81824 33.5457 4.81824C33.4914 4.83639 33.4371 4.81825 33.3737 4.8001C33.3556 4.79102 33.3466 4.79102 33.3285 4.79102C33.3013 4.79102 33.2651 4.78195 33.238 4.77288C33.2108 4.7638 33.1746 4.77288 33.1565 4.7638C33.1293 4.75473 33.1022 4.7638 33.0841 4.7638C33.066 4.7638 33.0569 4.7638 33.0569 4.7638C33.0569 4.7638 33.0569 4.77288 33.066 4.79102C33.075 4.80917 33.0841 4.83639 33.1022 4.85454C33.1112 4.86361 33.1203 4.88176 33.1384 4.89083C33.1474 4.89991 33.1655 4.91806 33.1837 4.92713C33.2199 4.94528 33.2561 4.96342 33.2923 4.9725C33.3104 4.9725 33.3194 4.9725 33.3375 4.9725C33.3466 5.00879 33.3466 5.03601 33.3466 5.07231C33.3466 5.1086 33.3556 5.13583 33.3556 5.16305C33.3556 5.22656 33.3466 5.28101 33.3194 5.33545C33.2832 5.40804 33.238 5.44433 33.1837 5.47155L32.6586 5.44433L33.0931 5.61673C33.1293 5.6621 33.1474 5.71654 33.1474 5.78913C33.1474 5.8345 33.1384 5.87987 33.1112 5.91617C33.0841 5.93431 33.0569 5.95246 33.0207 5.97061C32.9121 6.03412 32.7763 6.05227 32.7763 6.05227C32.7763 6.05227 32.8487 6.07042 32.9483 6.07042C32.8668 6.17023 32.7763 6.36985 32.7854 6.43337C32.7944 6.51503 32.8216 6.59669 32.7944 6.66928C32.7763 6.7328 32.713 6.7691 32.6496 6.78724C32.6405 6.78724 32.6405 6.78724 32.6315 6.79632C32.5591 6.81446 32.4957 6.80539 32.4233 6.79632C32.1789 6.7691 31.9255 6.75095 31.6811 6.72373C31.5181 6.08857 31.3733 5.44433 31.4186 4.79102C31.4548 4.32826 31.5362 3.83828 31.6539 3.3846C31.9798 3.28479 32.3056 3.19405 32.6405 3.09424C32.713 3.07609 32.7854 3.05794 32.8668 3.03979C32.8306 3.04887 32.8035 3.05794 32.7673 3.06702C32.6134 3.12146 32.4686 3.1759 32.3328 3.23034C32.197 3.28479 32.0703 3.3483 31.9707 3.39367C31.8168 3.47533 31.6992 3.52978 31.6539 3.557C31.6358 3.56607 31.6267 3.56607 31.6267 3.56607C31.6267 3.56607 31.663 3.557 31.7263 3.53885C31.7897 3.5207 31.8802 3.49348 31.9979 3.47533C32.0522 3.46626 32.1155 3.44811 32.1789 3.43904C32.369 3.40274 32.5953 3.36645 32.8216 3.33923C32.9755 3.32108 33.1384 3.32108 33.2832 3.31201C33.2832 3.31201 33.2832 3.31201 33.2832 3.32108C33.2742 3.37552 33.2832 3.42997 33.2923 3.48441C33.3104 3.53885 33.3285 3.59329 33.3556 3.63866C33.3647 3.64773 33.3737 3.66588 33.3828 3.68403C33.4552 3.81106 33.5819 4.06513 33.6181 4.15586C33.7358 4.49159 33.8535 4.58233 33.6 4.79102Z" fill="#574A9D"/>
<path d="M30.5405 7.30444C30.5405 7.29537 30.5495 7.29537 30.5495 7.28629C30.7668 7.00501 31.0293 6.74187 31.0293 6.74187C31.0293 6.74187 30.9478 6.77817 30.8211 6.83261C30.6943 6.88705 30.5314 6.96871 30.3685 7.06852C30.3051 7.10482 30.2418 7.14111 30.1875 7.17741C30.1241 6.95964 30.0607 6.74187 30.0155 6.51503C29.9883 6.388 29.9612 6.26096 29.9431 6.12486C29.8797 5.73469 29.8525 5.34452 29.8525 4.95435C30.0426 5.02694 30.2418 5.09045 30.4318 5.14489C30.631 5.19934 30.8211 5.23563 31.0202 5.27193C31.0293 5.52599 31.0655 5.78006 31.1107 6.03412C31.156 6.28818 31.2193 6.53317 31.2827 6.77816C31.2193 6.80539 31.1469 6.84168 31.0836 6.87798C30.8935 6.99593 30.7124 7.16834 30.5405 7.30444Z" fill="#574A9D"/>
<path d="M31.2104 3.52966C31.1198 3.93798 31.0565 4.35537 31.0203 4.76369C31.0203 4.79998 31.0203 4.83628 31.0203 4.88165C30.8845 4.8635 30.7578 4.83628 30.6311 4.79998C30.6401 4.79998 30.6492 4.79091 30.6582 4.79091C30.7216 4.76369 30.7668 4.73647 30.803 4.70925C30.8483 4.68203 30.8754 4.6548 30.9026 4.63666C30.9569 4.59129 30.9931 4.57314 30.9931 4.57314C30.9931 4.57314 30.9569 4.58222 30.8845 4.59129C30.8211 4.60036 30.7216 4.61851 30.613 4.60944C30.5043 4.60944 30.3957 4.57314 30.3052 4.50963C30.278 4.49148 30.2599 4.47333 30.2418 4.45518C30.1875 4.40074 30.1513 4.32815 30.1423 4.26463C30.1332 4.1739 30.1694 4.11946 30.2147 4.04687C30.2328 4.01057 30.2599 3.98335 30.2871 3.94705C30.5858 3.77465 30.8935 3.64762 31.2104 3.52966Z" fill="#574A9D"/>
</g>
<defs>
<clipPath id="clip0_997_660">
<rect width="147" height="48" fill="white"/>
</clipPath>
</defs>
</svg>
