<svg width="24" height="24" viewBox="0 0 24 24" fill="none" xmlns="http://www.w3.org/2000/svg">
<g clip-path="url(#clip0_348_648)">
<path d="M0 12C0 5.37258 5.37258 0 12 0V0C18.6274 0 24 5.37258 24 12V12C24 18.6274 18.6274 24 12 24V24C5.37258 24 0 18.6274 0 12V12Z" fill="white"/>
<path d="M-3 0H30V24H-3V0Z" fill="#000066"/>
<path fill-rule="evenodd" clip-rule="evenodd" d="M12.4587 19.625L10.2054 19.815L10.5148 21.985L8.96273 20.4L7.4107 21.985L7.72008 19.815L5.4668 19.625L7.4107 18.51L6.15773 16.685L8.2718 17.46L8.96273 15.375L9.65883 17.46L11.7729 16.685L10.5199 18.51L12.4587 19.625ZM22.0905 21.625L21.544 20.835L22.4618 21.17L22.7609 20.265L23.0599 21.17L23.9777 20.835L23.4363 21.625L24.2819 22.11L23.3023 22.195L23.4363 23.14L22.766 22.445L22.0854 23.14L22.2195 22.195L21.2398 22.115L22.0905 21.625ZM22.0854 7.51997L21.544 6.72997L22.4618 7.06497L22.7609 6.15997L23.0599 7.06497L23.9777 6.72997L23.4363 7.51997L24.2819 8.00997L23.3023 8.08997L23.4363 9.03497L22.766 8.34497L22.0854 9.02997L22.2195 8.08997L21.2398 8.00997L22.0854 7.51997ZM16.6352 13.25L16.0938 12.46L17.0116 12.795L17.3107 11.89L17.6149 12.795L18.5327 12.46L17.9862 13.25L18.8318 13.735L17.8521 13.82L17.9913 14.765L17.3107 14.07L16.6404 14.765L16.7693 13.82L15.7896 13.74L16.6352 13.25ZM26.9426 11.84L26.3909 11.05L27.3087 11.385L27.6077 10.48L27.9119 11.385L28.8298 11.05L28.2884 11.84L29.1288 12.325L28.1491 12.41L28.2832 13.35L27.6129 12.66L26.9323 13.35L27.0663 12.41L26.0866 12.325L26.9426 11.84ZM24.9471 16L24.416 16.325L24.5655 15.73L24.086 15.34L24.7099 15.29L24.9471 14.73L25.1894 15.295L25.8134 15.34L25.3338 15.73L25.4834 16.325" fill="white"/>
<path d="M-3 0H13.5V12H-3V0Z" fill="#000066"/>
<path d="M-1.06641 0L5.22422 4.525L11.4891 0H13.5V1.55L7.3125 6.025L13.5 10.475V12H11.4375L5.25 7.525L-0.911719 12H-3V10.5L3.16172 6.05L-3 1.6V0H-1.06641Z" fill="white"/>
<path d="M7.93125 7.025L13.5 11V12L6.51328 7.025H7.93125ZM3.1875 7.525L3.34219 8.4L-1.60781 12H-3L3.1875 7.525ZM13.5 0V0.075L7.08047 4.775L7.13203 3.675L12.2109 0H13.5ZM-3 0L3.16172 4.4H1.61484L-3 1.05V0Z" fill="#C8102E"/>
<path d="M3.21328 0V12H7.33828V0H3.21328ZM-3 4V8H13.5V4H-3Z" fill="white"/>
<path d="M-3 4.825V7.225H13.5V4.825H-3ZM4.03828 0V12H6.51328V0H4.03828Z" fill="#C8102E"/>
</g>
<defs>
<clipPath id="clip0_348_648">
<path d="M0 12C0 5.37258 5.37258 0 12 0V0C18.6274 0 24 5.37258 24 12V12C24 18.6274 18.6274 24 12 24V24C5.37258 24 0 18.6274 0 12V12Z" fill="white"/>
</clipPath>
</defs>
</svg>
