<svg width="24" height="24" viewBox="0 0 24 24" fill="none" xmlns="http://www.w3.org/2000/svg">
<mask id="mask0_262_6548" style="mask-type:alpha" maskUnits="userSpaceOnUse" x="0" y="0" width="24" height="24">
<circle cx="12" cy="12" r="12" fill="#C4C4C4"/>
</mask>
<g mask="url(#mask0_262_6548)">
<path d="M-4.98242 0H3.50664V24H-4.98242V0ZM20.4894 0H28.9785V24H20.4941L20.4894 0ZM6.05195 11.5969L5.38632 11.8219L8.45664 14.5172C8.69101 15.2063 8.37695 15.4078 8.17539 15.7734L11.5035 15.3516L11.4238 18.7031L12.1176 18.6844L11.9629 15.3563L15.3004 15.7547C15.0941 15.3188 14.9113 15.0891 15.0988 14.3953L18.1644 11.8406L17.6301 11.6437C17.1894 11.3062 17.8176 10.0172 17.9113 9.20156C17.9113 9.20156 16.1254 9.81563 16.0082 9.49219L15.5488 8.61563L13.9223 10.4062C13.7441 10.4484 13.6691 10.3781 13.6269 10.2281L14.3769 6.4875L13.1863 7.15781C13.0879 7.20469 12.9894 7.16719 12.9238 7.05L11.7754 4.75313L10.5941 7.13906C10.5051 7.22344 10.416 7.23281 10.341 7.17656L9.20664 6.53906L9.89101 10.2469C9.83476 10.3969 9.70351 10.4344 9.55351 10.3547L7.99257 8.5875C7.79101 8.91562 7.65507 9.44531 7.3832 9.56719C7.11601 9.67969 6.21132 9.34219 5.60664 9.21094C5.81289 9.95625 6.45976 11.1938 6.05195 11.6016V11.5969Z" fill="#FF0000"/>
</g>
</svg>
