<svg width="24" height="24" viewBox="0 0 24 24" fill="none" xmlns="http://www.w3.org/2000/svg">
<g clip-path="url(#clip0_348_666)">
<path d="M0 12C0 5.37258 5.37258 0 12 0C18.6274 0 24 5.37258 24 12C24 18.6274 18.6274 24 12 24C5.37258 24 0 18.6274 0 12Z" fill="white"/>
<g clip-path="url(#clip1_348_666)">
<path fill-rule="evenodd" clip-rule="evenodd" d="M29.3436 24.064H-5.03223V0H29.3436V24.064Z" fill="#BA0000"/>
<path fill-rule="evenodd" clip-rule="evenodd" d="M11.6668 11.6466C11.6668 11.6466 9.24163 10.6032 9.58943 7.896C9.92312 6.5941 10.52 5.7058 11.5963 5.2217C12.1039 5.0666 12.6209 4.9961 13.1473 4.9538C13.0063 5.0854 12.8935 5.217 12.8324 5.3768C12.7196 5.6776 12.8042 5.9596 12.9593 6.2463C13.152 6.5753 13.2695 6.9137 13.3071 7.3555C13.3424 7.65656 13.2976 7.9616 13.1771 8.23975C13.0566 8.51789 12.8647 8.75925 12.6209 8.9394C12.3107 9.1791 11.9441 9.2637 11.6433 9.5363C11.4083 9.7619 11.2673 9.9922 11.2203 10.387C11.2109 11.1437 11.413 11.2518 11.6668 11.6466Z" fill="white"/>
<path fill-rule="evenodd" clip-rule="evenodd" d="M11.2015 7.7291V7.71741V7.7291Z" fill="#BA0000"/>
<path d="M11.2015 7.7291V7.71741" stroke="black" stroke-width="1.974"/>
<path d="M11.3568 11.3646C10.4168 10.5327 10.4967 8.43181 11.2158 7.73151" stroke="#BA0000" stroke-width="1.974"/>
<path fill-rule="evenodd" clip-rule="evenodd" d="M11.7937 7.2615L11.9488 7.52L11.6668 7.4025L11.4459 7.6375L11.4835 7.332L11.2015 7.2145L11.507 7.144L11.5446 6.8432L11.6997 7.1017L12.0099 7.0312" fill="#BA0000"/>
<path fill-rule="evenodd" clip-rule="evenodd" d="M11.8738 11.468C11.8738 11.468 12.1558 8.84069 14.8489 8.38009C16.1931 8.32369 17.2177 8.62919 17.9979 9.52219C18.294 9.95929 18.5102 10.434 18.7029 10.9228C18.5384 10.8288 18.3833 10.7583 18.2047 10.7489C17.8898 10.7254 17.6407 10.8899 17.4151 11.1202C17.1516 11.4118 16.8232 11.6373 16.4563 11.7782C16.1791 11.9007 15.8745 11.9479 15.5733 11.9149C15.272 11.8819 14.9848 11.7699 14.7408 11.5902C14.4212 11.3599 14.2332 11.0356 13.8854 10.8288C13.6027 10.6608 13.2677 10.6038 12.9454 10.669C12.2169 10.8852 12.1793 11.1108 11.8738 11.468Z" fill="white"/>
<path fill-rule="evenodd" clip-rule="evenodd" d="M15.4785 9.87939H15.4904H15.4785Z" fill="#BA0000"/>
<path d="M15.4785 9.87939H15.4904" stroke="black" stroke-width="1.974"/>
<path d="M12.0476 11.092C12.574 9.94518 14.6044 9.40938 15.4833 9.88878" stroke="#BA0000" stroke-width="1.974"/>
<path fill-rule="evenodd" clip-rule="evenodd" d="M16.1037 10.3071L15.9016 10.528L15.9298 10.2225L15.6478 10.0815L15.9439 10.0345L15.9721 9.7196L16.1319 10.0016L16.4327 9.9452L16.2306 10.1661L16.3857 10.4481" fill="#BA0000"/>
<path fill-rule="evenodd" clip-rule="evenodd" d="M12.0524 11.656C12.0524 11.656 14.6374 11.092 15.9252 13.5031C16.4093 14.758 16.4422 15.8249 15.8453 16.8448C15.5257 17.2678 15.1403 17.6203 14.7408 17.9634C14.7784 17.7754 14.7925 17.6062 14.7455 17.437C14.6703 17.1268 14.4353 16.9435 14.1439 16.8025C13.7823 16.6444 13.4634 16.4028 13.2133 16.0975C13.0105 15.8735 12.8703 15.6001 12.8068 15.3047C12.7432 15.0093 12.7586 14.7024 12.8514 14.4149C12.9642 14.0389 13.2133 13.7569 13.2979 13.3621C13.3682 13.0415 13.3162 12.7063 13.1522 12.4221C12.7151 11.8017 12.4895 11.8346 12.0524 11.656Z" fill="white"/>
<path fill-rule="evenodd" clip-rule="evenodd" d="M14.7031 14.5747L14.7113 14.5829L14.7031 14.5747Z" fill="#BA0000"/>
<path d="M14.7031 14.5747L14.7113 14.5829" stroke="black" stroke-width="1.974"/>
<path d="M12.4706 11.703C13.7208 11.8393 14.8723 13.5924 14.6984 14.5841" stroke="#BA0000" stroke-width="1.974"/>
<path fill-rule="evenodd" clip-rule="evenodd" d="M14.4963 15.3032L14.219 15.181L14.5245 15.1105L14.5621 14.7956L14.7078 15.0635L15.0133 14.993L14.8018 15.228L14.9428 15.4959L14.6702 15.3737L14.4587 15.6134" fill="#BA0000"/>
<path fill-rule="evenodd" clip-rule="evenodd" d="M11.9959 11.9239C11.9959 11.9239 13.2602 14.2457 11.3144 16.1539C10.2428 16.9717 9.22764 17.3054 8.08084 17.0187C7.58734 16.8307 7.14084 16.5628 6.69434 16.2714C6.88234 16.2573 7.05624 16.2244 7.20664 16.1304C7.47924 15.9706 7.58734 15.6933 7.64374 15.3784C7.69266 14.9857 7.83444 14.6103 8.05734 14.2833C8.21504 14.0253 8.43798 13.8134 8.70368 13.669C8.96937 13.5246 9.26844 13.4528 9.57074 13.4608C9.96554 13.4655 10.3039 13.63 10.7081 13.6018C11.0324 13.5595 11.2862 13.4702 11.5729 13.1882C12.0429 12.6007 11.9489 12.3892 11.9959 11.9192V11.9239Z" fill="white"/>
<path fill-rule="evenodd" clip-rule="evenodd" d="M9.93659 15.2891L9.9325 15.2973L9.93659 15.2891Z" fill="#BA0000"/>
<path d="M9.93659 15.2891L9.9325 15.2973" stroke="black" stroke-width="1.974"/>
<path d="M12.0618 12.3328C12.2921 13.5736 10.9291 15.1763 9.92798 15.2797" stroke="#BA0000" stroke-width="1.974"/>
<path fill-rule="evenodd" clip-rule="evenodd" d="M9.1805 15.2938L9.2228 14.993L9.3779 15.2609L9.6881 15.2139L9.4719 15.4301L9.627 15.698L9.3403 15.5617L9.1241 15.7779L9.1617 15.4771L8.875 15.3408" fill="#BA0000"/>
<path fill-rule="evenodd" clip-rule="evenodd" d="M11.7091 11.8722C11.7091 11.8722 9.94186 13.8368 7.48846 12.643C6.36046 11.9051 5.71186 11.0544 5.60376 9.87937C5.61786 9.34827 5.71656 8.84067 5.84346 8.32837C5.92336 8.49757 6.01266 8.64797 6.14896 8.76077C6.38866 8.96287 6.68946 8.97227 7.00906 8.92057C7.39267 8.83657 7.79088 8.84624 8.16996 8.94877C8.46678 9.01125 8.7418 9.15111 8.96714 9.35416C9.19248 9.55721 9.36012 9.81623 9.45306 10.105C9.57996 10.4763 9.53766 10.8523 9.70216 11.2236C9.84316 11.515 10.0124 11.7218 10.3743 11.9004C11.0887 12.1495 11.2532 11.9897 11.7091 11.8769V11.8722Z" fill="white"/>
<path fill-rule="evenodd" clip-rule="evenodd" d="M7.84912 11.0538L7.84094 11.0497L7.84912 11.0538Z" fill="#BA0000"/>
<path d="M7.84912 11.0538L7.84094 11.0497" stroke="black" stroke-width="1.974"/>
<path d="M11.3426 12.0743C10.2522 12.6994 8.28762 11.9474 7.85522 11.0403" stroke="#BA0000" stroke-width="1.974"/>
<path fill-rule="evenodd" clip-rule="evenodd" d="M7.59658 10.34L7.89268 10.2789L7.69058 10.5139L7.83628 10.7912L7.56368 10.6596L7.36159 10.8946L7.39449 10.575L7.11719 10.4434L7.41328 10.3823L7.44619 10.0627" fill="#BA0000"/>
</g>
</g>
<defs>
<clipPath id="clip0_348_666">
<path d="M0 12C0 5.37258 5.37258 0 12 0C18.6274 0 24 5.37258 24 12C24 18.6274 18.6274 24 12 24C5.37258 24 0 18.6274 0 12Z" fill="white"/>
</clipPath>
<clipPath id="clip1_348_666">
<rect width="32" height="24" fill="white" transform="translate(-4)"/>
</clipPath>
</defs>
</svg>
