<svg width="24" height="24" viewBox="0 0 24 24" fill="none" xmlns="http://www.w3.org/2000/svg">
<path d="M0 12C0 5.37258 5.37258 0 12 0C18.6274 0 24 5.37258 24 12C24 18.6274 18.6274 24 12 24C5.37258 24 0 18.6274 0 12Z" fill="white"/>
<g clip-path="url(#clip0_348_657)">
<path fill-rule="evenodd" clip-rule="evenodd" d="M-6 0H30.0003V24.0013H-6V0Z" fill="white"/>
<path d="M12.0004 19.4625C16.1205 19.4625 19.4605 16.1225 19.4605 12.0024C19.4605 7.88239 16.1205 4.54242 12.0004 4.54242C7.88037 4.54242 4.54041 7.88239 4.54041 12.0024C4.54041 16.1225 7.88037 19.4625 12.0004 19.4625Z" fill="#D30000"/>
</g>
<path d="M12 23C5.92487 23 1 18.0751 1 12H-1C-1 19.1797 4.8203 25 12 25V23ZM23 12C23 18.0751 18.0751 23 12 23V25C19.1797 25 25 19.1797 25 12H23ZM12 1C18.0751 1 23 5.92487 23 12H25C25 4.8203 19.1797 -1 12 -1V1ZM12 -1C4.8203 -1 -1 4.8203 -1 12H1C1 5.92487 5.92487 1 12 1V-1Z" fill="#D30000"/>
<defs>
<clipPath id="clip0_348_657">
<rect width="24" height="24" fill="white"/>
</clipPath>
</defs>
</svg>
