<svg width="24" height="24" viewBox="0 0 24 24" fill="none" xmlns="http://www.w3.org/2000/svg">
<mask id="mask0_262_6692" style="mask-type:alpha" maskUnits="userSpaceOnUse" x="0" y="0" width="24" height="24">
<path d="M12 23.9984C18.6266 23.9984 23.9985 18.6265 23.9985 12C23.9985 5.37342 18.6266 0.00152588 12 0.00152588C5.37348 0.00152588 0.00158691 5.37342 0.00158691 12C0.00158691 18.6265 5.37348 23.9984 12 23.9984Z" fill="#F0F0F0"/>
<path d="M2.48228 4.69495C1.52585 5.93767 0.823259 7.35644 0.414551 8.87041H6.65674L2.48228 4.69495Z" fill="#0052B4"/>
<path d="M23.5855 8.87038C23.1769 7.35685 22.4747 5.93845 21.5187 4.69592L17.3433 8.87038H23.5855Z" fill="#0052B4"/>
<path d="M0.414551 15.1296C0.823103 16.6431 1.52534 18.0615 2.48128 19.304L6.65674 15.1296H0.414551Z" fill="#0052B4"/>
<path d="M19.3051 2.48222C18.0624 1.52581 16.6436 0.823222 15.1296 0.41449V6.65668L19.3051 2.48222Z" fill="#0052B4"/>
<path d="M4.69495 21.5178C5.93769 22.4742 7.35645 23.1768 8.87041 23.5855V17.3433L4.69495 21.5178Z" fill="#0052B4"/>
<path d="M8.87041 0.41449C7.35645 0.823222 5.93769 1.52581 4.69495 2.48222L8.87041 6.65668V0.41449Z" fill="#0052B4"/>
<path d="M15.1296 23.5855C16.6432 23.177 18.0616 22.4747 19.3041 21.5188L15.1296 17.3433V23.5855Z" fill="#0052B4"/>
<path d="M17.3433 15.1296L21.5177 19.304C22.4737 18.0615 23.1759 16.6431 23.5845 15.1296H17.3433Z" fill="#0052B4"/>
<path d="M23.8985 10.4352H13.5648V0.101537C12.526 -0.0338456 11.474 -0.0338456 10.4352 0.101537V10.4352H0.101537C-0.0338456 11.474 -0.0338456 12.526 0.101537 13.5648H10.4352V23.8985C11.474 24.0338 12.526 24.0338 13.5648 23.8985V13.5648H23.8985C24.0338 12.526 24.0338 11.474 23.8985 10.4352Z" fill="#D80027"/>
<path d="M15.1296 15.1296L20.4839 20.4839C20.7299 20.2379 20.9649 19.9813 21.1889 19.714L16.6054 15.1296H15.1296Z" fill="#D80027"/>
<path d="M8.87042 15.1296L3.51611 20.4839C3.76208 20.7299 4.01871 20.9648 4.28601 21.1888L8.87042 16.6054V15.1296Z" fill="#D80027"/>
<path d="M8.87037 8.87042L3.51607 3.51611C3.2701 3.76208 3.03513 4.01871 2.81116 4.28601L7.39457 8.87042H8.87037Z" fill="#D80027"/>
<path d="M15.1296 8.87037L20.4839 3.51607C20.238 3.2701 19.9813 3.03513 19.714 2.81116L15.1296 7.39457V8.87037Z" fill="#D80027"/>
</mask>
<g mask="url(#mask0_262_6692)">
<path fill-rule="evenodd" clip-rule="evenodd" d="M-7.79919 -1H48V1.25996H-7.79919V-1ZM-7.79919 3.51992H48V5.77988H-7.79919V3.51992ZM-7.79919 8.0341H48V10.2998H-7.79919V8.0341ZM-7.79919 12.554H48V14.814H-7.79919V12.554ZM-7.79919 17.0739H48V19.3339H-7.79919V17.0739ZM-7.79919 21.5881H48V23.8481H-7.79919V21.5881ZM-7.79919 26.108H48V28.368H-7.79919V26.108Z" fill="#BD3D44"/>
<path fill-rule="evenodd" clip-rule="evenodd" d="M-7.7998 1.2597H47.9994V3.51966H-7.7998V1.2597ZM-7.7998 5.77962H47.9994V8.03385H-7.7998V5.77962ZM-7.7998 10.2938H47.9994V12.5538H-7.7998V10.2938ZM-7.7998 14.8137H47.9994V17.0737H-7.7998V14.8137ZM-7.7998 19.3336H47.9994V21.5936H-7.7998V19.3336ZM-7.7998 23.8478H47.9994V26.1078H-7.7998V23.8478Z" fill="white"/>
<path fill-rule="evenodd" clip-rule="evenodd" d="M-7.7998 -1H14.5187V14.814H-7.7998V-1Z" fill="#192F5D"/>
<path fill-rule="evenodd" clip-rule="evenodd" d="M-5.94173 -0.323425L-5.73524 0.301792H-5.08134L-5.60905 0.686099L-5.40829 1.31705L-5.94173 0.927008L-6.46944 1.31132L-6.26868 0.686099L-6.80212 0.301792H-6.13676L-5.94173 -0.323425ZM-2.21911 -0.323425L-2.01835 0.301792H-1.35872L-1.89216 0.686099L-1.6914 1.31705L-2.21911 0.927008L-2.75255 1.31132L-2.5518 0.686099L-3.0795 0.301792H-2.4256L-2.21911 -0.323425ZM1.49778 -0.323425L1.70427 0.301792H2.35243L1.82473 0.686099L2.02548 1.31705L1.49204 0.927008L0.964334 1.31132L1.16509 0.686099L0.63165 0.301792H1.29128L1.49778 -0.323425ZM5.2204 -0.323425L5.42116 0.301792H6.08079L5.54735 0.686099L5.75384 1.31705L5.2204 0.927008L4.68696 1.31132L4.89345 0.686099L4.36001 0.301792H5.0139L5.2204 -0.323425ZM8.93729 -0.323425L9.14378 0.301792H9.79768L9.26997 0.686099L9.47073 1.31705L8.93729 0.927008L8.40958 1.31132L8.61034 0.686099L8.08263 0.301792H8.73653L8.93729 -0.323425ZM12.6599 -0.323425L12.8607 0.301792H13.5203L12.9869 0.686099L13.1933 1.31705L12.6599 0.927008L12.1265 1.31132L12.333 0.686099L11.7995 0.301792H12.4592L12.6599 -0.323425ZM-4.07755 1.25969L-3.8768 1.88491H-3.21716L-3.75061 2.26922L-3.55558 2.89443L-4.07182 2.51013L-4.60526 2.89443L-4.41597 2.26922L-4.93221 1.88491H-4.27831L-4.07755 1.25969ZM-0.360668 1.25969L-0.154174 1.88491H0.499723L-0.0337195 2.26922L0.172774 2.89443L-0.360668 2.51013L-0.89411 2.89443L-0.687616 2.26922L-1.22106 1.88491H-0.561426L-0.360668 1.25969ZM3.36196 1.25969L3.56271 1.88491H4.22235L3.6889 2.26922L3.88966 2.89443L3.36196 2.51013L2.82851 2.89443L3.02927 2.26922L2.50157 1.88491H3.15546L3.36196 1.25969ZM7.07884 1.25969L7.28534 1.88491H7.93923L7.40579 2.26922L7.61229 2.89443L7.07884 2.51013L6.55114 2.89443L6.75189 2.26922L6.21845 1.88491H6.88382L7.07884 1.25969ZM10.8015 1.25969L11.0022 1.88491H11.6619L11.1284 2.26922L11.3292 2.89443L10.8015 2.51013L10.268 2.89443L10.4688 2.26922L9.94107 1.88491H10.595L10.8015 1.25969ZM-5.94173 2.83707L-5.73524 3.47376H-5.08134L-5.60905 3.85807L-5.40829 4.48329L-5.94173 4.09324L-6.46944 4.48329L-6.26868 3.85233L-6.80212 3.46803H-6.13676L-5.94173 2.83707ZM-2.21911 2.83707L-2.01835 3.46803H-1.35872L-1.89216 3.85233L-1.6914 4.47755L-2.21911 4.08751L-2.75255 4.47755L-2.5518 3.8466L-3.0795 3.46229H-2.4256L-2.21911 2.83707ZM1.49778 2.83707L1.70427 3.46803H2.35243L1.82473 3.85233L2.02548 4.47755L1.49204 4.08751L0.964334 4.47755L1.16509 3.8466L0.63165 3.46229H1.29128L1.49778 2.83707ZM5.2204 2.83707L5.42116 3.46803H6.08079L5.54735 3.85233L5.75384 4.47755L5.2204 4.08751L4.68696 4.47755L4.89345 3.8466L4.36001 3.46229H5.0139L5.2204 2.83707ZM8.93729 2.83707L9.14378 3.46803H9.79768L9.26997 3.85233L9.47073 4.47755L8.93729 4.08751L8.40958 4.47755L8.61034 3.8466L8.08263 3.46229H8.73653L8.93729 2.83707ZM12.6599 2.83707L12.8607 3.46803H13.5203L12.9869 3.85233L13.1933 4.47755L12.6599 4.08751L12.1265 4.47755L12.333 3.8466L11.7995 3.46229H12.4592L12.6599 2.83707ZM-4.07755 4.42019L-3.8768 5.04541H-3.21716L-3.75061 5.42972L-3.54985 6.06067L-4.07755 5.67063L-4.611 6.05493L-4.41024 5.42972L-4.93794 5.04541H-4.28405L-4.07755 4.42019ZM-0.360668 4.42019L-0.154174 5.04541H0.499723L-0.0337195 5.42972L0.172774 6.06067L-0.360668 5.67063L-0.89411 6.05493L-0.687616 5.42972L-1.22106 5.04541H-0.561426L-0.360668 4.42019ZM3.36196 4.42019L3.56271 5.04541H4.22235L3.6889 5.42972L3.88966 6.06067L3.36196 5.67063L2.82851 6.05493L3.02927 5.42972L2.50157 5.04541H3.15546L3.36196 4.42019ZM7.07884 4.42019L7.28534 5.04541H7.93923L7.41153 5.42972L7.61229 6.06067L7.07884 5.67063L6.55114 6.05493L6.75189 5.42972L6.21845 5.04541H6.88382L7.07884 4.42019ZM10.8015 4.42019L11.0022 5.04541H11.6619L11.1284 5.42972L11.3292 6.06067L10.8015 5.67063L10.268 6.05493L10.4688 5.42972L9.94107 5.04541H10.595L10.8015 4.42019ZM-5.94173 6.00331L-5.73524 6.62853H-5.08134L-5.60905 7.01283L-5.40829 7.64379L-5.94173 7.25374L-6.46944 7.63805L-6.26868 7.01283L-6.80212 6.62853H-6.13676L-5.94173 6.00331ZM-2.21911 6.00331L-2.01835 6.62853H-1.35872L-1.89216 7.01283L-1.6914 7.63805L-2.21911 7.25374L-2.75255 7.63805L-2.5518 7.01283L-3.0795 6.62853H-2.4256L-2.21911 6.00331ZM1.49778 6.00331L1.70427 6.62853H2.35243L1.82473 7.01283L2.02548 7.64379L1.49204 7.25374L0.964334 7.63805L1.16509 7.01283L0.63165 6.62853H1.29128L1.49778 6.00331ZM5.2204 6.00331L5.42116 6.62853H6.08079L5.54735 7.01283L5.75384 7.64379L5.2204 7.25374L4.68696 7.63805L4.89345 7.01283L4.36001 6.62853H5.0139L5.2204 6.00331ZM8.93729 6.00331L9.14378 6.62853H9.79768L9.26997 7.01283L9.47073 7.64379L8.93729 7.25374L8.40958 7.63805L8.61034 7.01283L8.08263 6.62853H8.73653L8.93729 6.00331ZM12.6599 6.00331L12.8607 6.62853H13.5203L12.9869 7.01283L13.1933 7.64379L12.6599 7.25374L12.1265 7.63805L12.333 7.01283L11.7995 6.62853H12.4592L12.6599 6.00331ZM-4.07755 7.58643L-3.8768 8.21165H-3.21716L-3.75061 8.59595L-3.54985 9.22117L-4.07755 8.83113L-4.611 9.22117L-4.41024 8.59022L-4.93794 8.20591H-4.28405L-4.07755 7.58643ZM-0.360668 7.58643L-0.154174 8.21165H0.499723L-0.0337195 8.59595L0.172774 9.22117L-0.360668 8.83113L-0.89411 9.22117L-0.687616 8.59022L-1.22106 8.20591H-0.561426L-0.360668 7.58643ZM3.36196 7.58643L3.56271 8.21165H4.22235L3.6889 8.59595L3.88966 9.22117L3.36196 8.83113L2.82851 9.22117L3.02927 8.59022L2.50157 8.20591H3.15546L3.36196 7.58643ZM7.07884 7.58643L7.28534 8.21165H7.93923L7.41153 8.59595L7.61229 9.22117L7.07884 8.83113L6.55114 9.22117L6.75189 8.59022L6.21845 8.20591H6.88382L7.07884 7.58643ZM10.8015 7.58643L11.0022 8.21165H11.6619L11.1284 8.59595L11.3292 9.22117L10.8015 8.83113L10.268 9.22117L10.4688 8.59022L9.94107 8.20591H10.595L10.8015 7.58643ZM-5.94173 9.16381L-5.73524 9.79476H-5.08134L-5.60905 10.1791L-5.40829 10.7986L-5.94173 10.4142L-6.46944 10.7986L-6.26868 10.1733L-6.80212 9.78903H-6.13676L-5.94173 9.16381ZM-2.21911 9.16381L-2.01835 9.79476H-1.35872L-1.89216 10.1791L-1.68567 10.7986L-2.21911 10.4142L-2.75255 10.7986L-2.54606 10.1733L-3.0795 9.78903H-2.4256L-2.21911 9.16381ZM1.49778 9.16381L1.70427 9.79476H2.35243L1.82473 10.1791L2.02548 10.7986L1.49204 10.4142L0.964334 10.7986L1.16509 10.1733L0.63165 9.78903H1.29128L1.49778 9.16381ZM5.2204 9.16381L5.42116 9.79476H6.08079L5.54735 10.1791L5.75384 10.7986L5.2204 10.4142L4.68696 10.7986L4.89345 10.1733L4.36001 9.78903H5.0139L5.2204 9.16381ZM8.93729 9.16381L9.14378 9.79476H9.79768L9.26997 10.1791L9.47073 10.7986L8.93729 10.4142L8.40958 10.7986L8.61034 10.1733L8.08263 9.78903H8.73653L8.93729 9.16381ZM12.6599 9.16381L12.8607 9.79476H13.5203L12.9869 10.1791L13.1933 10.7986L12.6599 10.4142L12.1265 10.7986L12.333 10.1733L11.7995 9.78903H12.4592L12.6599 9.16381ZM-4.07755 10.7469L-3.8768 11.3721H-3.21716L-3.75061 11.7565L-3.54985 12.3874L-4.07755 11.9974L-4.611 12.3817L-4.41024 11.7565L-4.93794 11.3721H-4.28405L-4.07755 10.7469ZM-0.360668 10.7469L-0.154174 11.3721H0.499723L-0.0337195 11.7565L0.172774 12.3874L-0.360668 11.9974L-0.89411 12.3817L-0.687616 11.7565L-1.22106 11.3721H-0.561426L-0.360668 10.7469ZM3.36196 10.7469L3.56271 11.3721H4.22235L3.6889 11.7565L3.88966 12.3874L3.36196 11.9974L2.82851 12.3817L3.02927 11.7565L2.50157 11.3721H3.15546L3.36196 10.7469ZM7.07884 10.7469L7.28534 11.3721H7.93923L7.41153 11.7565L7.61229 12.3874L7.07884 11.9974L6.55114 12.3817L6.75189 11.7565L6.21845 11.3721H6.88382L7.07884 10.7469ZM10.8015 10.7469L11.0022 11.3721H11.6619L11.1284 11.7565L11.3292 12.3874L10.8015 11.9974L10.268 12.3817L10.4688 11.7565L9.94107 11.3721H10.595L10.8015 10.7469ZM-5.94173 12.33L-5.73524 12.9553H-5.08134L-5.60905 13.3396L-5.40829 13.9648L-5.94173 13.5805L-6.46944 13.9648L-6.26868 13.3338L-6.80212 12.9495H-6.13676L-5.94173 12.33ZM-2.21911 12.33L-2.01835 12.9553H-1.35872L-1.89216 13.3396L-1.68567 13.9648L-2.21911 13.5805L-2.75255 13.9648L-2.54606 13.3338L-3.0795 12.9495H-2.4256L-2.21911 12.33ZM1.49778 12.33L1.70427 12.9553H2.35243L1.8362 13.3396L2.03695 13.9648L1.50351 13.5805L0.975806 13.9648L1.17656 13.3338L0.643122 12.9495H1.30275L1.49778 12.33ZM5.2204 12.33L5.42116 12.9553H6.08079L5.54735 13.3396L5.75384 13.9648L5.2204 13.5805L4.68696 13.9648L4.89345 13.3338L4.36001 12.9495H5.0139L5.2204 12.33ZM8.93729 12.33L9.14378 12.9553H9.79768L9.26997 13.3396L9.47073 13.9648L8.93729 13.5805L8.40958 13.9648L8.61034 13.3338L8.08263 12.9495H8.73653L8.93729 12.33ZM12.6599 12.33L12.8607 12.9553H13.5203L12.9869 13.3396L13.1933 13.9648L12.6599 13.5805L12.1265 13.9648L12.333 13.3338L11.7995 12.9495H12.4592L12.6599 12.33Z" fill="white"/>
</g>
</svg>
