<svg width="16" height="10" viewBox="0 0 16 10" fill="none" xmlns="http://www.w3.org/2000/svg">
<path d="M9.07896 9.52646L15.5486 2.73876C15.6917 2.58994 15.8052 2.41288 15.8827 2.2178C15.9601 2.02272 16 1.81348 16 1.60214C16 1.39081 15.9601 1.18156 15.8827 0.986483C15.8052 0.791402 15.6917 0.614344 15.5486 0.465522C15.2628 0.167358 14.876 -4.91305e-08 14.4729 -6.67512e-08C14.0698 -8.43718e-08 13.6831 0.167358 13.3972 0.465522L7.99559 6.13261L2.59401 0.465521C2.30812 0.167357 1.92138 -6.15396e-07 1.51827 -6.33017e-07C1.11515 -6.50637e-07 0.728418 0.167357 0.442527 0.465521C0.301107 0.615107 0.189223 0.792509 0.113289 0.987556C0.0373543 1.1826 -0.00113514 1.39146 2.58768e-05 1.60214C-0.00113516 1.81283 0.0373543 2.02168 0.113289 2.21673C0.189223 2.41177 0.301107 2.58918 0.442527 2.73876L6.91222 9.52646C7.05407 9.67651 7.22283 9.79561 7.40877 9.87688C7.59472 9.95815 7.79416 10 7.99559 10C8.19702 10 8.39646 9.95815 8.5824 9.87688C8.76834 9.79561 8.93711 9.67651 9.07896 9.52646Z" fill="#A7A7A7"/>
</svg>
